<svg width="188" height="223" viewBox="0 0 188 223" fill="none" xmlns="http://www.w3.org/2000/svg">
<path fill-rule="evenodd" clip-rule="evenodd" d="M137 109H173C171.85 109.467 170.472 109.815 168.925 110.205C163.299 111.624 155.421 113.611 148 124C140.5 134.5 133.319 143.537 121 150.5C109.5 157 94.5 157 86 157H49L68 143V53.5L100 82C102.167 84 106.5 89.4 106.5 95C106.5 98.5648 104.036 102 101.618 105.372L101.618 105.372C100.26 107.266 98.9155 109.14 98.0307 111.005C97.2818 112.443 97 113.686 97 115C97 118.5 99 123 105 123C109.544 123 113.615 119.609 117.202 116.622C118.351 115.665 119.451 114.75 120.5 114C124 111.5 128.5 109 137 109ZM136 123C138.209 123 140 121.209 140 119C140 116.791 138.209 115 136 115C133.791 115 132 116.791 132 119C132 121.209 133.791 123 136 123Z" fill="#FB8500"/>
<path d="M106.5 101C114 93.5 120.5 89 120.5 77C120.5 63 109.5 52.5 68 0V53.5L100 82C102.167 84 106.5 89.4 106.5 95C106.5 98.5648 104.036 102 101.618 105.372C100.26 107.266 98.9155 109.14 98.0307 111.005C99.2767 108.613 101.815 105.684 106.5 101Z" fill="#FFB703"/>
<path d="M68 143L36 24.5L68 53.5V143Z" fill="#FFB703"/>
<path d="M26.9336 197.449C26.9336 200.665 26.3346 203.354 25.1367 205.516C23.9388 207.664 22.2005 209.285 19.9219 210.379C17.6432 211.46 14.8958 212 11.6797 212H3.75V183.445H12.5391C15.4948 183.445 18.0469 183.979 20.1953 185.047C22.3438 186.102 24.0039 187.671 25.1758 189.754C26.3477 191.824 26.9336 194.389 26.9336 197.449ZM22.0508 197.586C22.0508 195.242 21.6797 193.315 20.9375 191.805C20.2083 190.294 19.1276 189.174 17.6953 188.445C16.276 187.703 14.5247 187.332 12.4414 187.332H8.4375V208.074H11.7578C15.2083 208.074 17.7865 207.195 19.4922 205.438C21.1979 203.68 22.0508 201.062 22.0508 197.586ZM42.7742 189.969C43.1388 189.969 43.5359 189.988 43.9656 190.027C44.3953 190.066 44.7664 190.118 45.0789 190.184L44.6492 194.48C44.3758 194.402 44.0372 194.344 43.6336 194.305C43.243 194.266 42.8914 194.246 42.5789 194.246C41.7586 194.246 40.9773 194.383 40.2352 194.656C39.493 194.917 38.8354 195.32 38.2625 195.867C37.6896 196.401 37.2404 197.072 36.9148 197.879C36.5893 198.686 36.4266 199.624 36.4266 200.691V212H31.8172V190.379H35.4109L36.0359 194.188H36.2508C36.6805 193.419 37.2143 192.716 37.8523 192.078C38.4904 191.44 39.2195 190.932 40.0398 190.555C40.8732 190.164 41.7846 189.969 42.7742 189.969ZM67.4234 201.141C67.4234 202.938 67.1891 204.533 66.7203 205.926C66.2516 207.319 65.568 208.497 64.6695 209.461C63.7711 210.411 62.6904 211.141 61.4273 211.648C60.1643 212.143 58.7385 212.391 57.15 212.391C55.6656 212.391 54.3049 212.143 53.068 211.648C51.831 211.141 50.7568 210.411 49.8453 209.461C48.9469 208.497 48.2503 207.319 47.7555 205.926C47.2607 204.533 47.0133 202.938 47.0133 201.141C47.0133 198.758 47.4234 196.74 48.2438 195.086C49.0771 193.419 50.262 192.15 51.7984 191.277C53.3349 190.405 55.1643 189.969 57.2867 189.969C59.2789 189.969 61.0367 190.405 62.5602 191.277C64.0836 192.15 65.275 193.419 66.1344 195.086C66.9938 196.753 67.4234 198.771 67.4234 201.141ZM51.7398 201.141C51.7398 202.716 51.9286 204.064 52.3063 205.184C52.6969 206.303 53.2958 207.163 54.1031 207.762C54.9104 208.348 55.9521 208.641 57.2281 208.641C58.5042 208.641 59.5458 208.348 60.3531 207.762C61.1604 207.163 61.7529 206.303 62.1305 205.184C62.5081 204.064 62.6969 202.716 62.6969 201.141C62.6969 199.565 62.5081 198.23 62.1305 197.137C61.7529 196.03 61.1604 195.19 60.3531 194.617C59.5458 194.031 58.4977 193.738 57.2086 193.738C55.3076 193.738 53.9208 194.376 53.0484 195.652C52.176 196.928 51.7398 198.758 51.7398 201.141ZM82.9906 189.969C85.5557 189.969 87.613 190.906 89.1625 192.781C90.725 194.656 91.5062 197.443 91.5062 201.141C91.5062 203.589 91.1417 205.652 90.4125 207.332C89.6964 208.999 88.6872 210.262 87.3852 211.121C86.0961 211.967 84.5922 212.391 82.8734 212.391C81.7797 212.391 80.8292 212.247 80.0219 211.961C79.2146 211.674 78.5245 211.303 77.9516 210.848C77.3786 210.379 76.8969 209.871 76.5062 209.324H76.2328C76.2979 209.845 76.3565 210.424 76.4086 211.062C76.4737 211.688 76.5062 212.26 76.5062 212.781V221.59H71.8969V190.379H75.6469L76.2914 193.367H76.5062C76.9099 192.755 77.3982 192.189 77.9711 191.668C78.557 191.147 79.2602 190.737 80.0805 190.438C80.9138 190.125 81.8839 189.969 82.9906 189.969ZM81.7602 193.719C80.4971 193.719 79.4815 193.973 78.7133 194.48C77.9581 194.975 77.4047 195.724 77.0531 196.727C76.7146 197.729 76.5323 198.986 76.5062 200.496V201.141C76.5062 202.742 76.669 204.103 76.9945 205.223C77.3331 206.329 77.8865 207.176 78.6547 207.762C79.4359 208.335 80.4906 208.621 81.8187 208.621C82.9385 208.621 83.863 208.315 84.5922 207.703C85.3344 207.091 85.8878 206.219 86.2523 205.086C86.6169 203.953 86.7992 202.618 86.7992 201.082C86.7992 198.751 86.3826 196.941 85.5492 195.652C84.7289 194.363 83.4659 193.719 81.7602 193.719Z" fill="#FB8500"/>
<path d="M119.671 197.449C119.671 200.665 119.072 203.354 117.874 205.516C116.676 207.664 114.938 209.285 112.659 210.379C110.381 211.46 107.633 212 104.417 212H96.4875V183.445H105.277C108.232 183.445 110.784 183.979 112.933 185.047C115.081 186.102 116.741 187.671 117.913 189.754C119.085 191.824 119.671 194.389 119.671 197.449ZM114.788 197.586C114.788 195.242 114.417 193.315 113.675 191.805C112.946 190.294 111.865 189.174 110.433 188.445C109.014 187.703 107.262 187.332 105.179 187.332H101.175V208.074H104.495C107.946 208.074 110.524 207.195 112.23 205.438C113.935 203.68 114.788 201.062 114.788 197.586ZM133.031 189.969C135.766 189.969 137.829 190.574 139.223 191.785C140.629 192.996 141.332 194.884 141.332 197.449V212H138.07L137.191 208.934H137.035C136.423 209.715 135.792 210.359 135.141 210.867C134.49 211.375 133.734 211.753 132.875 212C132.029 212.26 130.993 212.391 129.77 212.391C128.48 212.391 127.328 212.156 126.312 211.688C125.297 211.206 124.496 210.477 123.91 209.5C123.324 208.523 123.031 207.286 123.031 205.789C123.031 203.562 123.858 201.889 125.512 200.77C127.178 199.65 129.691 199.031 133.051 198.914L136.801 198.777V197.645C136.801 196.147 136.449 195.079 135.746 194.441C135.056 193.803 134.079 193.484 132.816 193.484C131.736 193.484 130.688 193.641 129.672 193.953C128.656 194.266 127.667 194.65 126.703 195.105L125.219 191.863C126.273 191.303 127.471 190.848 128.812 190.496C130.167 190.145 131.573 189.969 133.031 189.969ZM136.781 201.668L133.988 201.766C131.697 201.844 130.089 202.234 129.164 202.938C128.24 203.641 127.777 204.604 127.777 205.828C127.777 206.896 128.096 207.677 128.734 208.172C129.372 208.654 130.212 208.895 131.254 208.895C132.842 208.895 134.158 208.445 135.199 207.547C136.254 206.635 136.781 205.301 136.781 203.543V201.668ZM161.489 205.828C161.489 207.247 161.144 208.445 160.454 209.422C159.764 210.398 158.755 211.141 157.427 211.648C156.111 212.143 154.497 212.391 152.583 212.391C151.072 212.391 149.77 212.28 148.677 212.059C147.596 211.85 146.574 211.525 145.61 211.082V207.117C146.639 207.599 147.791 208.016 149.067 208.367C150.356 208.719 151.574 208.895 152.72 208.895C154.23 208.895 155.317 208.66 155.981 208.191C156.645 207.71 156.977 207.072 156.977 206.277C156.977 205.809 156.841 205.392 156.567 205.027C156.307 204.65 155.812 204.266 155.083 203.875C154.367 203.471 153.312 202.99 151.919 202.43C150.552 201.883 149.399 201.336 148.462 200.789C147.524 200.242 146.815 199.585 146.333 198.816C145.851 198.035 145.61 197.039 145.61 195.828C145.61 193.914 146.365 192.462 147.876 191.473C149.399 190.47 151.411 189.969 153.911 189.969C155.239 189.969 156.489 190.105 157.661 190.379C158.846 190.639 160.005 191.023 161.137 191.531L159.692 194.988C158.716 194.559 157.733 194.207 156.743 193.934C155.766 193.647 154.77 193.504 153.755 193.504C152.57 193.504 151.665 193.686 151.04 194.051C150.428 194.415 150.122 194.936 150.122 195.613C150.122 196.121 150.272 196.551 150.571 196.902C150.871 197.254 151.385 197.605 152.114 197.957C152.856 198.309 153.885 198.745 155.2 199.266C156.489 199.76 157.602 200.281 158.54 200.828C159.49 201.362 160.22 202.02 160.727 202.801C161.235 203.582 161.489 204.591 161.489 205.828ZM170.24 181.609V189.246C170.24 190.04 170.214 190.815 170.162 191.57C170.123 192.326 170.077 192.911 170.025 193.328H170.279C170.735 192.573 171.295 191.954 171.959 191.473C172.623 190.978 173.365 190.607 174.185 190.359C175.018 190.112 175.904 189.988 176.841 189.988C178.495 189.988 179.901 190.268 181.06 190.828C182.219 191.375 183.104 192.228 183.716 193.387C184.341 194.546 184.654 196.049 184.654 197.898V212H180.064V198.758C180.064 197.078 179.719 195.822 179.029 194.988C178.339 194.142 177.271 193.719 175.826 193.719C174.433 193.719 173.326 194.012 172.505 194.598C171.698 195.171 171.119 196.023 170.767 197.156C170.416 198.276 170.24 199.643 170.24 201.258V212H165.65V181.609H170.24Z" fill="#FFB703"/>
</svg>
